<?xml version="1.0" encoding="UTF-8"?>
<svg width="42px" height="38px" viewBox="0 0 42 38" version="1.1" xmlns="http://www.w3.org/2000/svg" xmlns:xlink="http://www.w3.org/1999/xlink">
    <title>mm-logo</title>
    <g id="Desktop" stroke="none" stroke-width="1" fill="none" fill-rule="evenodd" stroke-linecap="round" stroke-linejoin="round">
        <g id="Web3" transform="translate(-519.000000, -389.000000)" fill-rule="nonzero" stroke-width="0.25">
            <g id="Group-4" transform="translate(490.000000, 293.000000)">
                <g id="Group-3" transform="translate(20.000000, 80.000000)">
                    <g id="mm-logo" transform="translate(10.000000, 16.500000)">
                        <polygon id="Path" stroke="#E17726" fill="#E17726" points="38.0217185 0 22.3956979 11.562144 25.3014922 4.74819682"></polygon>
                        <polygon id="Path" stroke="#E27625" fill="#E27625" points="1.97832909 0 17.4652227 11.6700524 14.6986268 4.74818492"></polygon>
                        <polygon id="Path" stroke="#E27625" fill="#E27625" points="32.3953708 26.808641 28.2377436 33.1601286 37.1403672 35.6113274 39.6906704 26.9474824"></polygon>
                        <polygon id="Path" stroke="#E27625" fill="#E27625" points="0.324451014 26.9474824 2.85921638 35.6113274 11.746433 33.1601286 7.60420093 26.808641"></polygon>
                        <polygon id="Path" stroke="#E27625" fill="#E27625" points="11.2672102 16.0790694 8.79429882 19.8098218 17.6041831 20.2106415 17.310558 10.7296906"></polygon>
                        <polygon id="Path" stroke="#E27625" fill="#E27625" points="28.7323139 16.0791884 22.5964052 10.6218773 22.39546 20.2107605 31.2052848 19.8099408"></polygon>
                        <polygon id="Path" stroke="#E27625" fill="#E27625" points="11.746552 33.1601286 17.0787987 30.5856739 12.4884671 27.0091104"></polygon>
                        <polygon id="Path" stroke="#E27625" fill="#E27625" points="22.9212013 30.5856739 28.2379815 33.1601286 27.5115329 27.0091104"></polygon>
                        <polygon id="Path" stroke="#D5BFB2" fill="#D5BFB2" points="28.2379815 33.1603666 22.9212013 30.5859118 23.3539057 34.0391004 23.3075063 35.5036569"></polygon>
                        <polygon id="Path" stroke="#D5BFB2" fill="#D5BFB2" points="11.746552 33.1603666 16.6924937 35.5036569 16.6615607 34.0391004 17.0787987 30.5859118"></polygon>
                        <polygon id="Path" stroke="#233447" fill="#233447" points="16.7850546 24.7275669 12.3646163 23.4326658 15.4867033 21.9989233"></polygon>
                        <polygon id="Path" stroke="#233447" fill="#233447" points="23.2148264 24.7275669 24.5131777 21.9989233 27.6507312 23.4326658"></polygon>
                        <polygon id="Path" stroke="#CC6228" fill="#CC6228" points="11.746433 33.1601286 12.519281 26.808641 7.60427232 26.9474824"></polygon>
                        <polygon id="Path" stroke="#CC6228" fill="#CC6228" points="27.480481 26.808641 28.2378625 33.1601286 32.3954897 26.9474824"></polygon>
                        <polygon id="Path" stroke="#CC6228" fill="#CC6228" points="31.2052848 19.8097028 22.39546 20.2105226 23.2145885 24.7275669 24.5129398 21.9988043 27.6504933 23.4325468"></polygon>
                        <polygon id="Path" stroke="#CC6228" fill="#CC6228" points="12.3646163 23.4325468 15.4867033 21.9988043 16.7850546 24.7275669 17.6041831 20.2105226 8.79429882 19.8097028"></polygon>
                        <polygon id="Path" stroke="#E27525" fill="#E27525" points="8.79458435 19.8097028 12.488586 27.0091104 12.3648542 23.4325468"></polygon>
                        <polygon id="Path" stroke="#E27525" fill="#E27525" points="27.6507312 23.4325468 27.5116519 27.0091104 31.2056417 19.8097028"></polygon>
                        <polygon id="Path" stroke="#E27525" fill="#E27525" points="17.604659 20.2105226 16.7854115 24.7275669 17.8209517 30.0614792 18.0528299 23.0317271"></polygon>
                        <polygon id="Path" stroke="#E27525" fill="#E27525" points="22.3956979 20.2105226 21.9628745 23.0163796 22.1792862 30.0614792 23.2148264 24.7275669"></polygon>
                        <polygon id="Path" stroke="#F5841F" fill="#F5841F" points="23.2148264 24.7276859 22.1792862 30.0615982 22.9212013 30.5857929 27.5116519 27.0092293 27.6507312 23.4326658"></polygon>
                        <polygon id="Path" stroke="#F5841F" fill="#F5841F" points="12.3646163 23.4326658 12.4883481 27.0092293 17.0786798 30.5857929 17.8205948 30.0615982 16.7850546 24.7276859"></polygon>
                        <polygon id="Path" stroke="#C0AC9D" fill="#C0AC9D" points="23.3076253 35.503538 23.3539057 34.0389815 22.9521342 33.6997897 17.0479847 33.6997897 16.6615607 34.0389815 16.6924937 35.503538 11.746552 33.1602476 13.4776078 34.5785236 16.9861188 36.9989084 22.9984147 36.9989084 26.5223922 34.5785236 28.2379815 33.1602476"></polygon>
                        <polygon id="Path" stroke="#161616" fill="#161616" points="22.9210823 30.5856739 22.1791672 30.0615982 17.8205948 30.0615982 17.0787987 30.5856739 16.6614418 34.0389815 17.0478658 33.6997897 22.9520153 33.6997897 23.3539057 34.0389815"></polygon>
                        <polygon id="Path" stroke="#763E1A" fill="#763E1A" points="38.6861822 12.317503 40 5.9352371 38.0215995 0 22.9212013 11.1767908 28.7325519 16.0790694 36.9396599 18.4686402 38.7480481 16.3566332 37.9598526 15.7861581 39.2116855 14.6454459 38.2534777 13.9054344 39.5054296 12.9496061"></polygon>
                        <polygon id="Path" stroke="#763E1A" fill="#763E1A" points="0 5.9352371 1.3292129 12.317503 0.479139588 12.9496061 1.74652227 13.9054344 0.788254995 14.6454459 2.0401831 15.7861581 1.2519281 16.3566332 3.0602806 18.4686402 11.2674481 16.0790694 17.0787987 11.1767908 1.97836478 0"></polygon>
                        <polygon id="Path" stroke="#F5841F" fill="#F5841F" points="36.9397789 18.4685213 28.7326709 16.0790694 31.2056417 19.8098218 27.5116519 27.0091104 32.3957277 26.9474824 39.6909084 26.9474824"></polygon>
                        <polygon id="Path" stroke="#F5841F" fill="#F5841F" points="11.2672102 16.0790694 3.06014973 18.4685213 0.324451014 26.9474824 7.60420093 26.9474824 12.4882291 27.0091104 8.79431072 19.8098218"></polygon>
                        <polygon id="Path" stroke="#F5841F" fill="#F5841F" points="22.395579 20.2106415 22.9210823 11.1766718 25.3012543 4.74817302 14.6985078 4.74817302 17.0786798 11.1766718 17.6041831 20.2106415 17.8051283 23.0471936 17.8205948 30.0615982 22.1791672 30.0615982 22.1946337 23.0471936"></polygon>
                    </g>
                </g>
            </g>
        </g>
    </g>
</svg>