<?xml version="1.0" encoding="UTF-8"?>
<svg width="20px" height="19px" viewBox="0 0 20 19" version="1.1" xmlns="http://www.w3.org/2000/svg" xmlns:xlink="http://www.w3.org/1999/xlink">
    <title>top-up</title>
    <g id="Mobile" stroke="none" stroke-width="1" fill="none" fill-rule="evenodd">
        <g transform="translate(-279.000000, -21.000000)" fill="#849AFF" fill-rule="nonzero" id="Group-5">
            <g transform="translate(270.000000, 10.000000)">
                <g id="top-up" transform="translate(9.000000, 11.000000)">
                    <path d="M4.28571429,10 C1.91857143,10 0,11.9185714 0,14.2857143 C0,16.6528571 1.91857143,18.5714286 4.28571429,18.5714286 C6.65285714,18.5714286 8.57142857,16.6528571 8.57142857,14.2857143 C8.57142857,11.9185714 6.65285714,10 4.28571429,10 Z M6.78571429,15 L5,15 L5,16.7857143 C5,16.9828571 4.84,17.1428571 4.64285714,17.1428571 L3.92857143,17.1428571 C3.73142857,17.1428571 3.57142857,16.9828571 3.57142857,16.7857143 L3.57142857,15 L1.78571429,15 C1.58857143,15 1.42857143,14.84 1.42857143,14.6428571 L1.42857143,13.9285714 C1.42857143,13.7314286 1.58857143,13.5714286 1.78571429,13.5714286 L3.57142857,13.5714286 L3.57142857,11.7857143 C3.57142857,11.5885714 3.73142857,11.4285714 3.92857143,11.4285714 L4.64285714,11.4285714 C4.84,11.4285714 5,11.5885714 5,11.7857143 L5,13.5714286 L6.78571429,13.5714286 C6.98285714,13.5714286 7.14285714,13.7314286 7.14285714,13.9285714 L7.14285714,14.6428571 C7.14285714,14.84 6.98285714,15 6.78571429,15 Z" id="Shape"></path>
                    <path d="M17.5,5.71428571 L20,5.71428571 L20,9.28571429 L17.5,9.28571429 C16.5157143,9.28571429 15.7142857,8.48428571 15.7142857,7.5 C15.7142857,6.51571429 16.5157143,5.71428571 17.5,5.71428571 Z" id="Path"></path>
                    <path d="M20,10.7142857 L20,13.5714286 C20,14.3607143 19.3607143,15 18.5714286,15 L9.95071429,15 C10.4514286,10.9914286 6.77642857,7.74785714 2.85714286,8.75857143 L2.85714286,0.714285714 C2.85714286,0.32 3.17714286,0 3.57142857,0 L18.5714286,0 C19.3607143,0 20,0.639285714 20,1.42857143 L20,4.28571429 L17.5,4.28571429 C15.7278571,4.28571429 14.2857143,5.72785714 14.2857143,7.5 C14.2857143,9.27214286 15.7278571,10.7142857 17.5,10.7142857 L20,10.7142857 Z" id="Path"></path>
                </g>
            </g>
        </g>
    </g>
</svg>