<?xml version="1.0" encoding="UTF-8"?>
<svg width="40px" height="26px" viewBox="0 0 40 26" version="1.1" xmlns="http://www.w3.org/2000/svg" xmlns:xlink="http://www.w3.org/1999/xlink">
    <title>walletconnect-logo</title>
    <g id="Desktop" stroke="none" stroke-width="1" fill="none" fill-rule="evenodd">
        <g id="Web3" transform="translate(-520.000000, -475.000000)" fill="#3B99FC" fill-rule="nonzero">
            <g id="Group-4" transform="translate(490.000000, 293.000000)">
                <g id="Group-3-Copy" transform="translate(20.000000, 160.000000)">
                    <g id="walletconnect-logo" transform="translate(10.000000, 22.800000)">
                        <path d="M8.18882985,4.7900235 C14.7119699,-1.5966745 25.2880697,-1.5966745 31.8112095,4.7900235 L32.59628,5.55867281 C32.9224369,5.87800768 32.9224369,6.39575188 32.59628,6.7150869 L29.9107106,9.34448312 C29.7476321,9.50415069 29.4832296,9.50415069 29.3201511,9.34448312 L28.239801,8.28673023 C23.6890955,3.83121008 16.310944,3.83121008 11.7602384,8.28673023 L10.6032727,9.41949631 C10.4401941,9.57916375 10.1757916,9.57916375 10.0127132,9.41949631 L7.32714389,6.79010008 C7.00098689,6.47076506 7.00098689,5.95302088 7.32714389,5.63368599 L8.18882985,4.7900235 Z M37.3652204,10.2278929 L39.7553823,12.5680688 C40.0815376,12.8874022 40.0815395,13.4051433 39.7553864,13.7244788 L28.9779815,24.276622 C28.6518268,24.5959593 28.1230218,24.5959629 27.7968626,24.2766303 C27.7968613,24.2766289 27.7968597,24.2766273 27.7968583,24.276626 L20.147712,16.7874628 C20.0661728,16.7076291 19.9339715,16.7076291 19.8524323,16.7874628 C19.8524318,16.7874633 19.8524314,16.7874639 19.8524308,16.7874643 L12.2034475,24.276622 C11.8772937,24.5959601 11.3484887,24.5959654 11.0223284,24.2766336 C11.0223265,24.2766317 11.0223244,24.2766299 11.0223224,24.2766277 L0.244617653,13.7243444 C-0.0815392178,13.4050095 -0.0815392178,12.8872653 0.244617653,12.5679304 L2.63478382,10.2277585 C2.96094069,9.90842358 3.48974575,9.90842358 3.81590276,10.2277585 L11.4651604,17.7170263 C11.5466997,17.7968601 11.6789007,17.7968601 11.7604401,17.7170263 C11.7604413,17.7170251 11.7604424,17.7170241 11.7604436,17.7170231 L19.4093178,10.2277585 C19.7354674,9.90841623 20.2642725,9.90840425 20.5904369,10.2277318 C20.5904414,10.2277363 20.590446,10.2277408 20.5904504,10.2277453 L28.2396979,17.7170231 C28.3212371,17.7968567 28.4534384,17.7968567 28.5349776,17.7170231 L36.1841015,10.2278929 C36.5102585,9.90855789 37.0390635,9.90855789 37.3652204,10.2278929 Z" id="WalletConnect"></path>
                    </g>
                </g>
            </g>
        </g>
    </g>
</svg>